<mxfile host="Electron" modified="2023-08-15T23:12:31.139Z" agent="Mozilla/5.0 (X11; Linux x86_64) AppleWebKit/537.36 (KHTML, like Gecko) draw.io/21.3.7 Chrome/112.0.5615.204 Electron/24.5.0 Safari/537.36" etag="Jhsoni5JNvnT-H1Rm_tM" version="21.3.7" type="device">
  <diagram name="PÃ¡gina-1" id="3nsLULByxWEo2vLuav4Y">
    <mxGraphModel dx="558" dy="2150" grid="1" gridSize="10" guides="1" tooltips="1" connect="1" arrows="1" fold="1" page="1" pageScale="1" pageWidth="827" pageHeight="1169" math="0" shadow="0">
      <root>
        <mxCell id="0" />
        <mxCell id="1" parent="0" />
        <mxCell id="IRPDi7WToCUUhQJvq4Na-30" style="edgeStyle=orthogonalEdgeStyle;rounded=0;orthogonalLoop=1;jettySize=auto;html=1;entryX=0.5;entryY=0;entryDx=0;entryDy=0;" edge="1" parent="1" source="IRPDi7WToCUUhQJvq4Na-1" target="IRPDi7WToCUUhQJvq4Na-28">
          <mxGeometry relative="1" as="geometry" />
        </mxCell>
        <mxCell id="IRPDi7WToCUUhQJvq4Na-1" value="Inicio" style="strokeWidth=2;html=1;shape=mxgraph.flowchart.terminator;whiteSpace=wrap;" vertex="1" parent="1">
          <mxGeometry x="350" y="-90" width="100" height="60" as="geometry" />
        </mxCell>
        <mxCell id="IRPDi7WToCUUhQJvq4Na-9" style="edgeStyle=orthogonalEdgeStyle;rounded=0;orthogonalLoop=1;jettySize=auto;html=1;" edge="1" parent="1" source="IRPDi7WToCUUhQJvq4Na-3" target="IRPDi7WToCUUhQJvq4Na-8">
          <mxGeometry relative="1" as="geometry" />
        </mxCell>
        <mxCell id="IRPDi7WToCUUhQJvq4Na-17" style="edgeStyle=orthogonalEdgeStyle;rounded=0;orthogonalLoop=1;jettySize=auto;html=1;" edge="1" parent="1" source="IRPDi7WToCUUhQJvq4Na-3" target="IRPDi7WToCUUhQJvq4Na-19">
          <mxGeometry relative="1" as="geometry">
            <mxPoint x="400" y="680" as="targetPoint" />
            <Array as="points">
              <mxPoint x="550" y="190" />
              <mxPoint x="550" y="640" />
              <mxPoint x="400" y="640" />
            </Array>
          </mxGeometry>
        </mxCell>
        <mxCell id="IRPDi7WToCUUhQJvq4Na-3" value="" style="verticalLabelPosition=bottom;verticalAlign=top;html=1;shape=hexagon;perimeter=hexagonPerimeter2;arcSize=6;size=0.27;" vertex="1" parent="1">
          <mxGeometry x="350" y="160" width="100" height="60" as="geometry" />
        </mxCell>
        <mxCell id="IRPDi7WToCUUhQJvq4Na-5" value="int i=0 ; i &amp;lt; 8 ; i++" style="text;html=1;strokeColor=none;fillColor=none;align=center;verticalAlign=middle;whiteSpace=wrap;rounded=0;" vertex="1" parent="1">
          <mxGeometry x="345" y="175" width="110" height="30" as="geometry" />
        </mxCell>
        <mxCell id="IRPDi7WToCUUhQJvq4Na-14" style="edgeStyle=orthogonalEdgeStyle;rounded=0;orthogonalLoop=1;jettySize=auto;html=1;" edge="1" parent="1" source="IRPDi7WToCUUhQJvq4Na-8" target="IRPDi7WToCUUhQJvq4Na-11">
          <mxGeometry relative="1" as="geometry" />
        </mxCell>
        <mxCell id="IRPDi7WToCUUhQJvq4Na-8" value="aluno[i].nome" style="html=1;strokeWidth=2;shape=manualInput;whiteSpace=wrap;rounded=1;size=26;arcSize=11;" vertex="1" parent="1">
          <mxGeometry x="350" y="250" width="100" height="60" as="geometry" />
        </mxCell>
        <mxCell id="IRPDi7WToCUUhQJvq4Na-10" style="edgeStyle=orthogonalEdgeStyle;rounded=0;orthogonalLoop=1;jettySize=auto;html=1;" edge="1" source="IRPDi7WToCUUhQJvq4Na-11" target="IRPDi7WToCUUhQJvq4Na-13" parent="1">
          <mxGeometry relative="1" as="geometry" />
        </mxCell>
        <mxCell id="IRPDi7WToCUUhQJvq4Na-11" value="" style="verticalLabelPosition=bottom;verticalAlign=top;html=1;shape=hexagon;perimeter=hexagonPerimeter2;arcSize=6;size=0.27;" vertex="1" parent="1">
          <mxGeometry x="350" y="360" width="100" height="60" as="geometry" />
        </mxCell>
        <mxCell id="IRPDi7WToCUUhQJvq4Na-16" style="edgeStyle=orthogonalEdgeStyle;rounded=0;orthogonalLoop=1;jettySize=auto;html=1;entryX=0;entryY=0.5;entryDx=0;entryDy=0;" edge="1" parent="1" source="IRPDi7WToCUUhQJvq4Na-12" target="IRPDi7WToCUUhQJvq4Na-5">
          <mxGeometry relative="1" as="geometry">
            <Array as="points">
              <mxPoint x="520" y="390" />
              <mxPoint x="520" y="600" />
              <mxPoint x="240" y="600" />
              <mxPoint x="240" y="190" />
            </Array>
          </mxGeometry>
        </mxCell>
        <mxCell id="IRPDi7WToCUUhQJvq4Na-12" value="int j=0 ; j &amp;lt; 4 ; j++" style="text;html=1;strokeColor=none;fillColor=none;align=center;verticalAlign=middle;whiteSpace=wrap;rounded=0;" vertex="1" parent="1">
          <mxGeometry x="345" y="375" width="110" height="30" as="geometry" />
        </mxCell>
        <mxCell id="IRPDi7WToCUUhQJvq4Na-15" style="edgeStyle=orthogonalEdgeStyle;rounded=0;orthogonalLoop=1;jettySize=auto;html=1;" edge="1" parent="1" source="IRPDi7WToCUUhQJvq4Na-13" target="IRPDi7WToCUUhQJvq4Na-12">
          <mxGeometry relative="1" as="geometry">
            <Array as="points">
              <mxPoint x="400" y="560" />
              <mxPoint x="280" y="560" />
              <mxPoint x="280" y="390" />
            </Array>
          </mxGeometry>
        </mxCell>
        <mxCell id="IRPDi7WToCUUhQJvq4Na-13" value="aluno[i].nota[j]" style="html=1;strokeWidth=2;shape=manualInput;whiteSpace=wrap;rounded=1;size=26;arcSize=11;" vertex="1" parent="1">
          <mxGeometry x="350" y="450" width="100" height="60" as="geometry" />
        </mxCell>
        <mxCell id="IRPDi7WToCUUhQJvq4Na-26" style="edgeStyle=orthogonalEdgeStyle;rounded=0;orthogonalLoop=1;jettySize=auto;html=1;entryX=0.5;entryY=0;entryDx=0;entryDy=0;" edge="1" parent="1" source="IRPDi7WToCUUhQJvq4Na-19" target="IRPDi7WToCUUhQJvq4Na-23">
          <mxGeometry relative="1" as="geometry" />
        </mxCell>
        <mxCell id="IRPDi7WToCUUhQJvq4Na-46" style="edgeStyle=orthogonalEdgeStyle;rounded=0;orthogonalLoop=1;jettySize=auto;html=1;entryX=0.5;entryY=0;entryDx=0;entryDy=0;" edge="1" parent="1" source="IRPDi7WToCUUhQJvq4Na-19" target="IRPDi7WToCUUhQJvq4Na-59">
          <mxGeometry relative="1" as="geometry">
            <mxPoint x="401" y="1440" as="targetPoint" />
            <Array as="points">
              <mxPoint x="600" y="705" />
              <mxPoint x="600" y="1400" />
              <mxPoint x="400" y="1400" />
            </Array>
          </mxGeometry>
        </mxCell>
        <mxCell id="IRPDi7WToCUUhQJvq4Na-19" value="" style="verticalLabelPosition=bottom;verticalAlign=top;html=1;shape=hexagon;perimeter=hexagonPerimeter2;arcSize=6;size=0.27;" vertex="1" parent="1">
          <mxGeometry x="334" y="670" width="132" height="70" as="geometry" />
        </mxCell>
        <mxCell id="IRPDi7WToCUUhQJvq4Na-20" value="int linha=0 ; linha &amp;lt; tamanhoVetor ; linha++" style="text;html=1;strokeColor=none;fillColor=none;align=center;verticalAlign=middle;whiteSpace=wrap;rounded=0;" vertex="1" parent="1">
          <mxGeometry x="345" y="695" width="110" height="30" as="geometry" />
        </mxCell>
        <mxCell id="IRPDi7WToCUUhQJvq4Na-35" style="edgeStyle=orthogonalEdgeStyle;rounded=0;orthogonalLoop=1;jettySize=auto;html=1;" edge="1" parent="1" source="IRPDi7WToCUUhQJvq4Na-23" target="IRPDi7WToCUUhQJvq4Na-33">
          <mxGeometry relative="1" as="geometry" />
        </mxCell>
        <mxCell id="IRPDi7WToCUUhQJvq4Na-45" style="edgeStyle=orthogonalEdgeStyle;rounded=0;orthogonalLoop=1;jettySize=auto;html=1;entryX=0;entryY=0.5;entryDx=0;entryDy=0;" edge="1" parent="1" source="IRPDi7WToCUUhQJvq4Na-23" target="IRPDi7WToCUUhQJvq4Na-19">
          <mxGeometry relative="1" as="geometry">
            <Array as="points">
              <mxPoint x="560" y="805" />
              <mxPoint x="560" y="1360" />
              <mxPoint x="200" y="1360" />
              <mxPoint x="200" y="705" />
            </Array>
          </mxGeometry>
        </mxCell>
        <mxCell id="IRPDi7WToCUUhQJvq4Na-23" value="" style="verticalLabelPosition=bottom;verticalAlign=top;html=1;shape=hexagon;perimeter=hexagonPerimeter2;arcSize=6;size=0.27;" vertex="1" parent="1">
          <mxGeometry x="334" y="770" width="132" height="70" as="geometry" />
        </mxCell>
        <mxCell id="IRPDi7WToCUUhQJvq4Na-24" value="int coluna=linha ; coluna &amp;lt; tamanhoVetor&amp;nbsp;; coluna++" style="text;html=1;strokeColor=none;fillColor=none;align=center;verticalAlign=middle;whiteSpace=wrap;rounded=0;" vertex="1" parent="1">
          <mxGeometry x="344" y="795" width="115" height="30" as="geometry" />
        </mxCell>
        <mxCell id="IRPDi7WToCUUhQJvq4Na-32" style="edgeStyle=orthogonalEdgeStyle;rounded=0;orthogonalLoop=1;jettySize=auto;html=1;" edge="1" parent="1" source="IRPDi7WToCUUhQJvq4Na-27" target="IRPDi7WToCUUhQJvq4Na-3">
          <mxGeometry relative="1" as="geometry" />
        </mxCell>
        <mxCell id="IRPDi7WToCUUhQJvq4Na-27" value="cad_aluno tamanhoVetor" style="rounded=1;whiteSpace=wrap;html=1;absoluteArcSize=1;arcSize=14;strokeWidth=2;" vertex="1" parent="1">
          <mxGeometry x="350" y="70" width="100" height="50" as="geometry" />
        </mxCell>
        <mxCell id="IRPDi7WToCUUhQJvq4Na-29" style="edgeStyle=orthogonalEdgeStyle;rounded=0;orthogonalLoop=1;jettySize=auto;html=1;entryX=0.5;entryY=0;entryDx=0;entryDy=0;" edge="1" parent="1" source="IRPDi7WToCUUhQJvq4Na-28" target="IRPDi7WToCUUhQJvq4Na-27">
          <mxGeometry relative="1" as="geometry" />
        </mxCell>
        <mxCell id="IRPDi7WToCUUhQJvq4Na-28" value="cad_aluno aluno[8]" style="rounded=1;whiteSpace=wrap;html=1;absoluteArcSize=1;arcSize=14;strokeWidth=2;" vertex="1" parent="1">
          <mxGeometry x="350" width="100" height="50" as="geometry" />
        </mxCell>
        <mxCell id="IRPDi7WToCUUhQJvq4Na-37" style="edgeStyle=orthogonalEdgeStyle;rounded=0;orthogonalLoop=1;jettySize=auto;html=1;" edge="1" parent="1" source="IRPDi7WToCUUhQJvq4Na-33" target="IRPDi7WToCUUhQJvq4Na-36">
          <mxGeometry relative="1" as="geometry" />
        </mxCell>
        <mxCell id="IRPDi7WToCUUhQJvq4Na-44" style="edgeStyle=orthogonalEdgeStyle;rounded=0;orthogonalLoop=1;jettySize=auto;html=1;entryX=0;entryY=0.5;entryDx=0;entryDy=0;" edge="1" parent="1" source="IRPDi7WToCUUhQJvq4Na-33" target="IRPDi7WToCUUhQJvq4Na-23">
          <mxGeometry relative="1" as="geometry">
            <Array as="points">
              <mxPoint x="520" y="915" />
              <mxPoint x="520" y="1320" />
              <mxPoint x="240" y="1320" />
              <mxPoint x="240" y="805" />
            </Array>
          </mxGeometry>
        </mxCell>
        <mxCell id="IRPDi7WToCUUhQJvq4Na-33" value="" style="verticalLabelPosition=bottom;verticalAlign=top;html=1;shape=hexagon;perimeter=hexagonPerimeter2;arcSize=6;size=0.27;" vertex="1" parent="1">
          <mxGeometry x="330.5" y="880" width="139" height="70" as="geometry" />
        </mxCell>
        <mxCell id="IRPDi7WToCUUhQJvq4Na-34" value="&amp;nbsp;;strcmp(aluno[linha], aluno[coluna]) &amp;gt; 0;&amp;nbsp;" style="text;html=1;strokeColor=none;fillColor=none;align=center;verticalAlign=middle;whiteSpace=wrap;rounded=0;" vertex="1" parent="1">
          <mxGeometry x="344.5" y="900" width="115" height="30" as="geometry" />
        </mxCell>
        <mxCell id="IRPDi7WToCUUhQJvq4Na-39" value="" style="edgeStyle=orthogonalEdgeStyle;rounded=0;orthogonalLoop=1;jettySize=auto;html=1;" edge="1" parent="1" source="IRPDi7WToCUUhQJvq4Na-36" target="IRPDi7WToCUUhQJvq4Na-38">
          <mxGeometry relative="1" as="geometry" />
        </mxCell>
        <mxCell id="IRPDi7WToCUUhQJvq4Na-36" value="auxiliarTrocador = aluno[linha];" style="rounded=1;whiteSpace=wrap;html=1;absoluteArcSize=1;arcSize=14;strokeWidth=2;" vertex="1" parent="1">
          <mxGeometry x="350" y="1001" width="100" height="50" as="geometry" />
        </mxCell>
        <mxCell id="IRPDi7WToCUUhQJvq4Na-41" value="" style="edgeStyle=orthogonalEdgeStyle;rounded=0;orthogonalLoop=1;jettySize=auto;html=1;" edge="1" parent="1" source="IRPDi7WToCUUhQJvq4Na-38" target="IRPDi7WToCUUhQJvq4Na-40">
          <mxGeometry relative="1" as="geometry" />
        </mxCell>
        <mxCell id="IRPDi7WToCUUhQJvq4Na-38" value="aluno[linha] = aluno[coluna];" style="rounded=1;whiteSpace=wrap;html=1;absoluteArcSize=1;arcSize=14;strokeWidth=2;" vertex="1" parent="1">
          <mxGeometry x="350" y="1090" width="100" height="50" as="geometry" />
        </mxCell>
        <mxCell id="IRPDi7WToCUUhQJvq4Na-42" style="edgeStyle=orthogonalEdgeStyle;rounded=0;orthogonalLoop=1;jettySize=auto;html=1;entryX=0;entryY=0.5;entryDx=0;entryDy=0;" edge="1" parent="1" source="IRPDi7WToCUUhQJvq4Na-40" target="IRPDi7WToCUUhQJvq4Na-33">
          <mxGeometry relative="1" as="geometry">
            <Array as="points">
              <mxPoint x="400" y="1280" />
              <mxPoint x="280" y="1280" />
              <mxPoint x="280" y="915" />
            </Array>
          </mxGeometry>
        </mxCell>
        <mxCell id="IRPDi7WToCUUhQJvq4Na-40" value="aluno[coluna] = auxiliarTrocador;" style="rounded=1;whiteSpace=wrap;html=1;absoluteArcSize=1;arcSize=14;strokeWidth=2;" vertex="1" parent="1">
          <mxGeometry x="350" y="1180" width="100" height="50" as="geometry" />
        </mxCell>
        <mxCell id="IRPDi7WToCUUhQJvq4Na-47" style="edgeStyle=orthogonalEdgeStyle;rounded=0;orthogonalLoop=1;jettySize=auto;html=1;" edge="1" parent="1">
          <mxGeometry relative="1" as="geometry">
            <mxPoint x="410" y="230" as="sourcePoint" />
            <mxPoint x="410" y="260" as="targetPoint" />
          </mxGeometry>
        </mxCell>
        <mxCell id="IRPDi7WToCUUhQJvq4Na-58" style="edgeStyle=orthogonalEdgeStyle;rounded=0;orthogonalLoop=1;jettySize=auto;html=1;" edge="1" source="IRPDi7WToCUUhQJvq4Na-59" parent="1">
          <mxGeometry relative="1" as="geometry">
            <mxPoint x="400" y="1950" as="targetPoint" />
            <Array as="points">
              <mxPoint x="550" y="1470" />
              <mxPoint x="550" y="1920" />
              <mxPoint x="400" y="1920" />
            </Array>
          </mxGeometry>
        </mxCell>
        <mxCell id="IRPDi7WToCUUhQJvq4Na-71" style="edgeStyle=orthogonalEdgeStyle;rounded=0;orthogonalLoop=1;jettySize=auto;html=1;entryX=0.5;entryY=0;entryDx=0;entryDy=0;entryPerimeter=0;" edge="1" parent="1" source="IRPDi7WToCUUhQJvq4Na-59" target="IRPDi7WToCUUhQJvq4Na-70">
          <mxGeometry relative="1" as="geometry" />
        </mxCell>
        <mxCell id="IRPDi7WToCUUhQJvq4Na-59" value="" style="verticalLabelPosition=bottom;verticalAlign=top;html=1;shape=hexagon;perimeter=hexagonPerimeter2;arcSize=6;size=0.27;" vertex="1" parent="1">
          <mxGeometry x="350" y="1440" width="100" height="60" as="geometry" />
        </mxCell>
        <mxCell id="IRPDi7WToCUUhQJvq4Na-60" value="int i=0 ; i &amp;lt; 8 ; i++" style="text;html=1;strokeColor=none;fillColor=none;align=center;verticalAlign=middle;whiteSpace=wrap;rounded=0;" vertex="1" parent="1">
          <mxGeometry x="345" y="1455" width="110" height="30" as="geometry" />
        </mxCell>
        <mxCell id="IRPDi7WToCUUhQJvq4Na-63" style="edgeStyle=orthogonalEdgeStyle;rounded=0;orthogonalLoop=1;jettySize=auto;html=1;" edge="1" source="IRPDi7WToCUUhQJvq4Na-64" parent="1">
          <mxGeometry relative="1" as="geometry">
            <mxPoint x="400.04761904761904" y="1730" as="targetPoint" />
          </mxGeometry>
        </mxCell>
        <mxCell id="IRPDi7WToCUUhQJvq4Na-64" value="" style="verticalLabelPosition=bottom;verticalAlign=top;html=1;shape=hexagon;perimeter=hexagonPerimeter2;arcSize=6;size=0.27;" vertex="1" parent="1">
          <mxGeometry x="350" y="1640" width="100" height="60" as="geometry" />
        </mxCell>
        <mxCell id="IRPDi7WToCUUhQJvq4Na-65" style="edgeStyle=orthogonalEdgeStyle;rounded=0;orthogonalLoop=1;jettySize=auto;html=1;entryX=0;entryY=0.5;entryDx=0;entryDy=0;" edge="1" source="IRPDi7WToCUUhQJvq4Na-66" target="IRPDi7WToCUUhQJvq4Na-60" parent="1">
          <mxGeometry relative="1" as="geometry">
            <Array as="points">
              <mxPoint x="520" y="1670" />
              <mxPoint x="520" y="1880" />
              <mxPoint x="240" y="1880" />
              <mxPoint x="240" y="1470" />
            </Array>
          </mxGeometry>
        </mxCell>
        <mxCell id="IRPDi7WToCUUhQJvq4Na-66" value="int j=0 ; j &amp;lt; 4 ; j++" style="text;html=1;strokeColor=none;fillColor=none;align=center;verticalAlign=middle;whiteSpace=wrap;rounded=0;" vertex="1" parent="1">
          <mxGeometry x="345" y="1655" width="110" height="30" as="geometry" />
        </mxCell>
        <mxCell id="IRPDi7WToCUUhQJvq4Na-67" style="edgeStyle=orthogonalEdgeStyle;rounded=0;orthogonalLoop=1;jettySize=auto;html=1;" edge="1" target="IRPDi7WToCUUhQJvq4Na-66" parent="1">
          <mxGeometry relative="1" as="geometry">
            <mxPoint x="400.04761904761904" y="1790" as="sourcePoint" />
            <Array as="points">
              <mxPoint x="400" y="1840" />
              <mxPoint x="280" y="1840" />
              <mxPoint x="280" y="1670" />
            </Array>
          </mxGeometry>
        </mxCell>
        <mxCell id="IRPDi7WToCUUhQJvq4Na-72" style="edgeStyle=orthogonalEdgeStyle;rounded=0;orthogonalLoop=1;jettySize=auto;html=1;entryX=0.5;entryY=0;entryDx=0;entryDy=0;" edge="1" parent="1" source="IRPDi7WToCUUhQJvq4Na-70" target="IRPDi7WToCUUhQJvq4Na-64">
          <mxGeometry relative="1" as="geometry" />
        </mxCell>
        <mxCell id="IRPDi7WToCUUhQJvq4Na-70" value="aluno[i].nome" style="strokeWidth=2;html=1;shape=mxgraph.flowchart.display;whiteSpace=wrap;" vertex="1" parent="1">
          <mxGeometry x="350" y="1530" width="100" height="60" as="geometry" />
        </mxCell>
        <mxCell id="IRPDi7WToCUUhQJvq4Na-75" value="aluno[j].nota" style="strokeWidth=2;html=1;shape=mxgraph.flowchart.display;whiteSpace=wrap;" vertex="1" parent="1">
          <mxGeometry x="345" y="1730" width="100" height="60" as="geometry" />
        </mxCell>
        <mxCell id="IRPDi7WToCUUhQJvq4Na-76" value="Fim" style="strokeWidth=2;html=1;shape=mxgraph.flowchart.terminator;whiteSpace=wrap;" vertex="1" parent="1">
          <mxGeometry x="352" y="2050" width="100" height="60" as="geometry" />
        </mxCell>
        <mxCell id="IRPDi7WToCUUhQJvq4Na-78" style="edgeStyle=orthogonalEdgeStyle;rounded=0;orthogonalLoop=1;jettySize=auto;html=1;" edge="1" parent="1" source="IRPDi7WToCUUhQJvq4Na-77" target="IRPDi7WToCUUhQJvq4Na-76">
          <mxGeometry relative="1" as="geometry" />
        </mxCell>
        <mxCell id="IRPDi7WToCUUhQJvq4Na-77" value="return 0;" style="rounded=1;whiteSpace=wrap;html=1;absoluteArcSize=1;arcSize=14;strokeWidth=2;" vertex="1" parent="1">
          <mxGeometry x="351.5" y="1950" width="100" height="50" as="geometry" />
        </mxCell>
      </root>
    </mxGraphModel>
  </diagram>
</mxfile>
